<svg width="280" height="150" viewBox="0 0 280 150" fill="none" xmlns="http://www.w3.org/2000/svg">
<path d="M41.6381 121.144L41.6394 121.155L41.6407 121.165L41.6407 121.165L41.6408 121.166L41.6409 121.166L41.6422 121.176L41.6485 121.227C41.6542 121.274 41.6627 121.346 41.6731 121.442C41.6938 121.634 41.722 121.922 41.7502 122.291C41.8066 123.031 41.8628 124.096 41.8599 125.378C41.8541 127.953 41.61 131.361 40.678 134.766C39.7452 138.173 38.1468 141.495 35.4915 144.005C32.8634 146.488 29.0927 148.28 23.5993 148.473C15.7537 148.745 10.6624 146.953 7.39014 144.262C4.11752 141.571 2.46341 137.815 1.82266 133.757C1.18002 129.687 1.57532 125.406 2.32443 121.853C3.08499 118.246 4.16129 115.611 4.72357 114.776C4.953 114.435 5.17279 114.099 5.38898 113.77C6.6033 111.918 7.70343 110.24 9.75729 108.688C12.1613 106.871 15.9826 105.173 22.9546 104.072C27.163 103.408 29.9697 100.473 31.8062 96.8343C33.635 93.2112 34.6144 88.6939 35.1306 84.3752C35.6494 80.035 35.7127 75.783 35.6482 72.6263C35.6158 71.0451 35.5513 69.7321 35.4946 68.8119C35.4662 68.3517 35.4398 67.9894 35.4203 67.7405C35.4106 67.6161 35.4026 67.52 35.397 67.4541L35.3903 67.3783L35.3885 67.3579L35.388 67.3521L35.3878 67.3503C35.3878 67.3498 35.3877 67.3493 33.8941 67.488L35.3877 67.3493L35.3831 67.3L35.3765 67.2588L35.3762 67.2567L35.3758 67.2543L35.3757 67.2528C35.3745 67.2443 35.3721 67.2269 35.369 67.2007C35.3664 67.1782 35.3632 67.1494 35.3597 67.1144C35.3551 67.0678 35.35 67.0102 35.345 66.9421C35.3275 66.7034 35.3117 66.3361 35.3241 65.8588C35.349 64.9042 35.4869 63.5122 35.9499 61.8302C36.8714 58.4828 39.0981 53.9203 44.4136 49.336C49.5575 44.8997 55.2383 44.2565 59.709 44.7409C61.9491 44.9836 63.8674 45.5092 65.2239 45.9744C65.9007 46.2064 66.4334 46.4219 66.7915 46.5767C66.9705 46.6541 67.1055 46.7161 67.1927 46.7573C67.2024 46.7618 67.2114 46.7661 67.2198 46.7701C67.242 46.7854 67.2669 46.8025 67.2945 46.821C67.4108 46.8994 67.575 47.0059 67.7823 47.1297C68.1957 47.3768 68.7864 47.6968 69.5148 48.0014C70.9597 48.6056 73.0214 49.1805 75.3443 48.9319C80.2155 48.4103 85.2768 44.4359 88.3905 32.8935C91.3053 22.0882 98.6159 14.7956 105.298 10.1742C108.633 7.86772 111.786 6.2455 114.103 5.20132C115.26 4.67972 116.205 4.30374 116.856 4.05977C117.181 3.93782 117.433 3.84895 117.6 3.79146C117.684 3.76271 117.747 3.74182 117.787 3.72856L117.831 3.71437L117.839 3.71153L117.84 3.71149L117.84 3.71124L117.841 3.71117L117.881 3.69843L117.92 3.68358L117.92 3.6834L117.921 3.68326L117.922 3.68298L117.93 3.67995L117.976 3.66304C118.019 3.64737 118.087 3.62309 118.18 3.59154C118.364 3.5284 118.644 3.43611 119.011 3.325C119.747 3.10272 120.833 2.8055 122.209 2.51553C124.964 1.93515 128.867 1.38684 133.439 1.52023C142.561 1.78638 154.353 4.76172 165.076 15.6735C176.297 27.0926 185.244 30.3145 191.592 30.4832C194.752 30.5672 197.197 29.8901 198.872 29.1702C199.707 28.811 200.349 28.4424 200.793 28.1546C201.015 28.0107 201.187 27.8867 201.31 27.794C201.354 27.7607 201.391 27.7314 201.422 27.7066C201.472 27.6761 201.547 27.6303 201.646 27.5709C201.848 27.4495 202.151 27.2711 202.545 27.0493C203.333 26.6055 204.483 25.9888 205.917 25.3063C208.791 23.9387 212.774 22.3207 217.245 21.2937C226.21 19.2338 236.797 19.6021 244.558 28.6602C252.762 38.2351 260.817 50.5828 266.838 60.5743C269.845 65.5628 272.335 69.9493 274.073 73.0878C274.942 74.6569 275.623 75.9135 276.086 76.7767C276.317 77.2084 276.494 77.5416 276.613 77.7664C276.67 77.8729 276.713 77.955 276.743 78.0117C276.755 78.049 276.772 78.0979 276.792 78.1582C276.847 78.3227 276.927 78.5712 277.022 78.8944C277.213 79.5412 277.467 80.4848 277.71 81.6519C278.198 83.9919 278.637 87.1985 278.46 90.695C278.108 97.6463 275.348 105.661 265.656 110.481C255.737 115.414 247.906 114.563 242.584 112.569C239.901 111.564 237.828 110.256 236.429 109.204C235.731 108.679 235.204 108.219 234.858 107.897C234.684 107.737 234.557 107.61 234.475 107.528C234.434 107.486 234.405 107.456 234.388 107.437L234.371 107.42L234.371 107.419L234.37 107.419L234.369 107.418L234.369 107.417L234.364 107.412L233.262 108.43C234.364 107.412 234.363 107.411 234.362 107.41L234.36 107.408L234.353 107.4L234.327 107.372C234.305 107.349 234.274 107.316 234.233 107.273C234.151 107.187 234.031 107.063 233.875 106.903C233.561 106.584 233.099 106.125 232.495 105.552C231.287 104.406 229.511 102.806 227.223 100.97C222.651 97.3 216.015 92.6743 207.76 88.8571C191.227 81.212 168.157 76.8017 142.289 89.8445C136.092 92.9647 129.445 92.5906 124.236 91.3668C121.643 90.7576 119.446 89.9464 117.899 89.2881C117.127 88.9594 116.52 88.6702 116.11 88.4656C115.905 88.3633 115.75 88.2822 115.648 88.2281C115.598 88.2011 115.56 88.1808 115.537 88.1679L115.516 88.1566L115.513 88.1548L115.512 88.1543L115.508 88.152L115.508 88.1518L115.507 88.1517L115.461 88.1244C115.416 88.0991 115.353 88.0636 115.272 88.0191C115.11 87.9301 114.874 87.8049 114.569 87.6518C113.958 87.3456 113.066 86.9273 111.913 86.4634C109.608 85.5359 106.257 84.4243 102.031 83.6621C93.5683 82.1362 81.6147 82.0162 67.5545 87.5496C53.4207 93.112 46.8699 101.404 43.9067 108.436C42.4346 111.93 41.8645 115.073 41.6632 117.353C41.5625 118.494 41.5539 119.422 41.5715 120.073C41.5804 120.399 41.5957 120.657 41.6096 120.838C41.6165 120.928 41.623 121 41.6281 121.051C41.6306 121.077 41.6328 121.097 41.6345 121.113L41.6367 121.133L41.6375 121.139L41.6378 121.142C41.638 121.143 41.6381 121.144 43.1272 120.964L41.6381 121.144Z" stroke="url(#paint0_linear_404_352)" stroke-width="3"/>
<defs>
<linearGradient id="paint0_linear_404_352" x1="-0.00190264" y1="75.0037" x2="280.007" y2="75.0037" gradientUnits="userSpaceOnUse">
<stop stop-color="#2D479D" stop-opacity="0.8"/>
<stop offset="1" stop-color="#EC008C"/>
</linearGradient>
</defs>
</svg>
